<mxfile host="app.diagrams.net" modified="2023-09-09T10:29:08.214Z" agent="Mozilla/5.0 (Windows NT 10.0; Win64; x64) AppleWebKit/537.36 (KHTML, like Gecko) Chrome/114.0.0.0 YaBrowser/23.7.4.971 Yowser/2.5 Safari/537.36" version="21.7.4" etag="OgcWYJw82_whZH9LhUo4" type="github">
  <diagram name="Страница — 1" id="nTcDeEsrLePXewdtgln3">
    <mxGraphModel>
      <root>
        <mxCell id="0" />
        <mxCell id="1" parent="0" />
      </root>
    </mxGraphModel>
  </diagram>
</mxfile>
